<svg xmlns="http://www.w3.org/2000/svg" width="94" height="94" viewBox="0 0 94 94"><path fill="#969696" d="M90.56 27.22l-3.53-4.64.02-.02c.15-.25.28-.5.41-.75l.08-.16.32-.73.08-.2a11.33 11.33 0 0 0 .63-2.44l.04-.36a11.03 11.03 0 0 0 .07-1.41l-.01-.35a11.73 11.73 0 0 0-.2-1.65l-.05-.23-.14-.6-.06-.2a11.9 11.9 0 0 0-.24-.73l-.07-.2-.31-.73-.07-.13c-.12-.24-.24-.48-.38-.7a11.19 11.19 0 0 0-1.1-1.57c-.02-.05-.06-.08-.1-.12a11.2 11.2 0 0 0-1.25-1.26l-.11-.1a11.55 11.55 0 0 0-1.52-1.06l-.05-.03c-.24-.14-.47-.27-.71-.38l-.13-.07a11.7 11.7 0 0 0-.73-.3l-.2-.08-.72-.24-.2-.06-.6-.14-.24-.05a12.01 12.01 0 0 0-1.65-.2h-.35a11.2 11.2 0 0 0-1.4.06l-.37.04a11.13 11.13 0 0 0-1.57.34l-.29.09-.59.2-.2.08c-.24.1-.48.2-.72.32l-.15.08c-.26.13-.51.26-.76.41l-.02.02-4.63-3.54A12 12 0 0 0 51.07 4.5L4.49 51.09A12.02 12.02 0 0 0 3.44 66.8l3.53 4.63-.02.02c-.15.25-.28.5-.41.75l-.08.16-.32.73-.08.2a11.64 11.64 0 0 0-.63 2.43l-.04.38a10.63 10.63 0 0 0-.07 1.4l.01.35.05.65.04.32.1.68.06.24.14.6.06.2a11.68 11.68 0 0 0 .63 1.65l.06.13c.12.24.24.48.38.71l.03.06c.14.24.3.48.46.71l.09.13c.16.23.33.45.51.67l.1.11a11.6 11.6 0 0 0 1.26 1.26l.11.1.67.52.13.08c.23.17.47.32.72.47l.05.03c.24.13.47.26.71.37l.13.07a10.6 10.6 0 0 0 1.65.62l.2.06.6.15.24.05a11.15 11.15 0 0 0 1.64.19h.36a10.92 10.92 0 0 0 2.4-.2l.34-.08.6-.15.3-.1.57-.2.2-.07c.25-.1.49-.21.73-.33l.15-.08a11.22 11.22 0 0 0 .78-.42l4.63 3.53a12 12 0 0 0 15.72-1.06l46.58-46.6a12.02 12.02 0 0 0 1.05-15.71zm-68.9 56.3l-.3.22-.37.26-.36.21-.28.17c-.46.23-.93.42-1.41.57h-.01c-.24.07-.48.13-.72.17l-.08.02-.66.1h-.12c-.2.02-.41.03-.62.03h-.16c-.2 0-.38-.01-.57-.03l-.2-.02a7.69 7.69 0 0 1-1.24-.24l-.25-.07a7.6 7.6 0 0 1-.44-.16l-.27-.1a7.62 7.62 0 0 1-.41-.2l-.28-.13-.4-.23-.25-.16-.4-.3-.21-.15a7.88 7.88 0 0 1-1.1-1.1c-.06-.07-.1-.15-.16-.21l-.3-.41-.16-.26-.23-.4-.14-.26a8.98 8.98 0 0 1-.52-1.38 8.72 8.72 0 0 1-.12-.48l-.04-.23a8.4 8.4 0 0 1-.08-.53l-.02-.2a8.3 8.3 0 0 1-.03-.57v-.16l.03-.62v-.12l.1-.66.02-.08c.04-.24.1-.48.17-.72v-.01c.15-.48.34-.95.58-1.4l.16-.3.21-.35c.08-.13.18-.25.27-.37l.21-.3.04-.04c.16-.2.34-.4.53-.59L71.7 11.07c.2-.2.39-.37.6-.53l.03-.04.3-.21c.12-.1.24-.19.37-.27l.35-.2.3-.18c.45-.23.92-.42 1.4-.56l.02-.01c.24-.07.47-.13.71-.17l.08-.02.66-.1h.13l.6-.03h.17c.2 0 .38.01.57.03l.2.02a9.17 9.17 0 0 1 1.5.31 7.84 7.84 0 0 1 1.11.45l.28.14.4.23.25.16.4.3c.07.05.15.1.21.16a8.08 8.08 0 0 1 1.1 1.1l.16.2.3.41.16.26.23.4a7.56 7.56 0 0 1 .95 3.65v.17l-.03.6-.01.13c-.02.22-.05.44-.1.66v.08c-.05.24-.11.48-.18.71v.02c-.15.49-.34.96-.57 1.4l-.18.3-.2.35c-.08.13-.18.25-.27.38l-.21.29-.04.04c-.16.2-.34.4-.53.6L22.3 82.94c-.2.2-.39.37-.6.54zM6.92 53.5L53.5 6.9a8.57 8.57 0 0 1 11.21-.75l4 3.06-59.5 59.51-3.05-4a8.57 8.57 0 0 1 .76-11.22zM40.5 87.1a8.56 8.56 0 0 1-11.21.75l-4-3.05 59.5-59.52 3.05 4a8.57 8.57 0 0 1-.76 11.22zm28.57-58.83a13.76 13.76 0 0 0 3.46-6.02.66.66 0 0 0-1.28-.3c-.02.07-1.63 6.66-8.19 8.2-7.34 1.71-9.23 8.99-9.3 9.27-.02.07-1.9 6.32-7.63 7.66-6.36 1.49-8.5 8.1-8.65 8.6-.11.32-2.5 6.59-7.77 7.82-6.11 1.43-8.15 7.93-8.23 8.2a.66.66 0 1 0 1.26.39c.02-.06 1.9-6.05 7.27-7.3 6.1-1.43 8.61-8.38 8.73-8.7.02-.07 1.98-6.4 7.69-7.73 6.46-1.51 8.5-8.28 8.6-8.6.02-.06 1.76-6.8 8.33-8.34 2.5-.58 4.35-1.8 5.71-3.15z"/></svg>